<svg width="109" height="21" viewBox="0 0 109 21" fill="none" xmlns="http://www.w3.org/2000/svg">
<path d="M17.6712 3.8921C16.9377 4.22895 15.6894 4.86067 15.062 4.98141C15.0377 4.98754 15.0179 4.99541 14.9945 5.00154C14.2628 4.29982 13.2602 3.86497 12.1505 3.86497C9.91396 3.86497 8.10043 5.62801 8.10043 7.80227C8.10043 7.91689 8.09053 8.12775 8.10043 8.23975C5.20418 8.23975 3.08914 6.7707 1.50602 4.88254C1.29451 4.62881 1.06951 4.76093 1.02271 4.94117C0.917407 5.3489 0.881407 6.03049 0.881407 6.51696C0.881407 7.74277 1.86692 8.94671 3.40145 9.69305C3.11884 9.76392 2.80744 9.81467 2.48343 9.81467C2.10183 9.81467 1.66262 9.71755 1.27831 9.52156C1.13611 9.44894 0.829206 9.46906 0.920107 9.82254C1.28461 11.2391 2.94784 12.2339 4.43377 12.5235C4.09626 12.7169 3.37625 12.6775 3.04504 12.6775C2.92264 12.6775 2.49693 12.6495 2.22153 12.6163C1.97042 12.5865 1.58432 12.6495 1.90742 13.1255C2.60134 14.1466 4.17096 14.7879 5.52188 14.8124C4.27806 15.7609 2.24403 16.1073 0.295497 16.1073C-0.0987096 16.0986 -0.0789092 16.5352 0.238796 16.6971C1.67612 17.4303 4.03056 17.8643 5.71269 17.8643C12.3998 17.8643 16.2006 12.9094 16.2006 8.23887C16.2006 8.16363 16.1988 8.00614 16.1961 7.84777C16.1961 7.83202 16.2006 7.81714 16.2006 7.8014C16.2006 7.77777 16.1934 7.75502 16.1934 7.7314C16.1907 7.61241 16.188 7.50129 16.1853 7.44354C16.7154 7.07168 17.5272 6.42597 17.9376 5.93162C18.0771 5.76362 17.9646 5.55976 17.7747 5.62363C17.286 5.789 16.4409 6.10923 15.9117 6.17048C16.971 5.48889 17.4948 4.89567 17.9448 4.23683C18.0987 4.01196 17.9061 3.7836 17.6712 3.8921Z" fill="white"/>
<path d="M48 7.53092H51.3333V18.8643H48V7.53092ZM49.6567 6.19759H49.638C48.6433 6.19759 48 5.45626 48 4.53026C48 3.58426 48.6633 2.86426 49.676 2.86426C50.69 2.86426 51.3147 3.58426 51.3333 4.53026C51.3333 5.45559 50.69 6.19759 49.6567 6.19759ZM64 18.8643H60.6667V12.7983C60.6667 11.3329 59.85 10.3329 58.5387 10.3329C57.538 10.3329 56.9967 11.0076 56.734 11.6596C56.638 11.8929 56.6667 12.5383 56.6667 12.8643V18.8643H53.3333V7.53092H56.6667V9.27492C57.1473 8.53092 57.9 7.53092 59.8253 7.53092C62.2107 7.53092 63.9993 9.03092 63.9993 12.3803L64 18.8643Z" fill="white"/>
<path d="M105 8.61429H101.316V7.11429C101.316 6.3403 101.404 5.8528 102.949 5.8528H104.902V3.4678C103.952 3.3973 102.996 3.3628 102.04 3.3643C99.2048 3.3643 97.1354 4.60705 97.1354 6.88854V8.61429H94V11.6143L97.1354 11.6135V18.3643H101.316V11.612L104.52 11.6113L105 8.61429Z" fill="white"/>
</svg>
