<svg width="584" height="117" viewBox="0 0 584 117" fill="none" xmlns="http://www.w3.org/2000/svg">
<path d="M0 0.86438L73.5531 1.44162M583.36 115.516L552.903 111.691L506.299 108.816L452.398 106.241L396.252 95.4028L348.799 79.613L301.02 62.7447L257.035 47.341L215.946 40.9233L179.584 25.5791L138.738 8.04843L73.5531 1.44162M73.5531 1.44162L138.454 13.4244M505.977 114.908L452.056 112.692L395.701 105.796L348.153 91.7985L300.431 73.8553L256.409 59.1681L215.414 50.9584L179.166 33.4638L138.454 13.4244M138.454 13.4244L178.786 40.6313M395.264 114.039L347.432 105.417L299.672 88.1911L255.649 73.5039L214.825 62.0682L196.806 51.3498L178.786 40.6313M178.786 40.6313L196.34 60.1308M346.957 114.377L298.969 101.452L255.06 84.6141L214.331 71.3869L205.336 65.7589L196.34 60.1308M196.34 60.1308L205.032 71.4932L213.724 82.8555L254.529 94.6492L298.305 113.996M196.34 60.1308L213.116 94.3242L233.319 103.984L253.522 113.644M196.34 60.1308L212.613 103.822L212.11 113.319" stroke="#6C7D7E"/>
</svg>
